<?xml version="1.0" encoding="utf-8"?>
<!-- Generator: Adobe Illustrator 19.0.0, SVG Export Plug-In . SVG Version: 6.00 Build 0)  -->
<svg version="1.1" id="Layer_1" xmlns="http://www.w3.org/2000/svg" xmlns:xlink="http://www.w3.org/1999/xlink" x="0px" y="0px"
	 viewBox="935.7 -639.4 21.6 35.3" style="enable-background:new 935.7 -639.4 21.6 35.3;" xml:space="preserve">
<style type="text/css">
	.st0{fill:#FFFFFF;}
</style>
<title>white google map pin</title>
<title>Layer 1</title>
<path class="st0" d="M946.5-606c-0.7-3.7-2.1-6.7-3.7-9.6c-1.2-2.1-2.6-4-3.8-6.1c-0.4-0.7-0.8-1.4-1.2-2.1c-0.8-1.4-1.5-3-1.4-5.2
	c0-2.1,0.6-3.7,1.5-5.1c1.4-2.2,3.8-4.1,7-4.6c2.6-0.4,5.1,0.3,6.8,1.3c1.4,0.8,2.5,1.9,3.4,3.2c0.9,1.4,1.5,3,1.5,5.1
	c0,1.1-0.2,2.1-0.4,2.9c-0.3,0.8-0.7,1.5-1,2.3c-0.7,1.5-1.6,2.8-2.5,4.1C950-615.6,947.6-611.5,946.5-606z"/>
<path d="M946.5-604.1l-0.4-1.8c-0.7-3.2-1.8-6.2-3.6-9.5c-0.7-1.3-1.6-2.6-2.4-3.9c-0.5-0.7-0.9-1.5-1.4-2.2
	c-0.3-0.4-0.5-0.9-0.8-1.3c-0.1-0.3-0.3-0.5-0.4-0.8c-0.5-0.8-0.8-1.6-1.1-2.4c-0.3-1-0.4-1.9-0.4-3c0-1,0.2-2,0.5-2.9
	c0.3-0.8,0.6-1.6,1.1-2.4c0.8-1.2,1.8-2.2,2.9-3c1.3-0.9,2.7-1.4,4.3-1.7c1.3-0.2,2.6-0.2,3.9,0.1c1.1,0.2,2.2,0.7,3.2,1.2
	c1.4,0.8,2.6,2,3.5,3.4c1,1.6,1.5,3.3,1.6,5.3c0,1-0.1,2-0.4,3c-0.2,0.7-0.5,1.3-0.8,1.8c-0.1,0.2-0.2,0.3-0.3,0.5
	c-0.7,1.5-1.6,2.9-2.5,4.2c-2.6,4-5.1,8-6.1,13.5L946.5-604.1z M946.4-638.3c-0.5,0-1,0-1.5,0.1c-1.5,0.2-2.8,0.7-4,1.6
	c-1.1,0.7-2,1.7-2.7,2.8c-0.4,0.7-0.8,1.4-1,2.2c-0.3,0.9-0.4,1.8-0.4,2.7c0,2.2,0.7,3.8,1.4,5c0.2,0.3,0.3,0.5,0.5,0.8
	c0.2,0.4,0.5,0.9,0.7,1.3c0.5,0.7,0.9,1.5,1.4,2.2c0.8,1.3,1.7,2.6,2.4,3.9c1.6,2.8,2.6,5.4,3.3,8.1c1.2-4.9,3.5-8.5,5.9-12.2
	c0.9-1.3,1.7-2.6,2.4-4.1c0.1-0.2,0.2-0.4,0.3-0.5c0.3-0.6,0.5-1.1,0.7-1.7c0.3-0.9,0.4-1.9,0.4-2.8c0-1-0.2-1.9-0.4-2.7
	c-0.2-0.8-0.6-1.5-1-2.2c-0.8-1.3-1.9-2.4-3.2-3.1C950-637.8,948.2-638.3,946.4-638.3z"/>
<g id="svg_4">
	<circle cx="946.5" cy="-628.9" r="3.5"/>
</g>
</svg>
